<svg width="374" height="31" viewBox="0 0 374 31" fill="none" xmlns="http://www.w3.org/2000/svg">
<path d="M24.28 0.919998H34.2V16.84C34.1467 20.76 32.8 24 30.16 26.56C27.5467 29.12 23.1333 30.4 16.92 30.4C10.6267 30.4 6.32 29.1867 4 26.76C1.68 24.3067 0.546667 21.0933 0.6 17.12V0.919998H10.52V16.48C10.52 17.6533 10.6 18.6133 10.76 19.36C10.9467 20.08 11.5067 20.76 12.44 21.4C13.4 22.04 14.9333 22.36 17.04 22.36C19.3333 22.36 21.0133 22.04 22.08 21.4C23.1467 20.7333 23.7733 20 23.96 19.2C24.1733 18.4 24.28 17.3733 24.28 16.12V0.919998ZM69.5169 10.64C69.5169 12.96 68.9435 14.92 67.7969 16.52C66.6769 18.12 64.7435 19.28 61.9969 20C62.3169 20.4267 62.5435 20.76 62.6769 21L69.1569 30H58.2769C57.1035 27.8133 55.2502 24.72 52.7169 20.72H46.8369V30H37.3969C37.6102 24.8267 37.7169 19.9867 37.7169 15.48C37.7169 10.9733 37.6102 6.13333 37.3969 0.96H46.8369V0.999999H55.0369C60.4235 0.999999 64.1835 1.86667 66.3169 3.6C68.4502 5.33333 69.5169 7.68 69.5169 10.64ZM46.8369 8.68V13.24H52.2369C54.5035 13.24 56.2102 13.1733 57.3569 13.04C58.5302 12.88 59.3435 12.64 59.7969 12.32C60.2502 12 60.4769 11.5333 60.4769 10.92C60.4769 10.3333 60.2635 9.88 59.8369 9.56C59.4102 9.24 58.6102 9.01333 57.4369 8.88C56.2635 8.74667 54.5302 8.68 52.2369 8.68H46.8369ZM96.1494 15.56C102.229 15.56 105.269 17.4933 105.269 21.36C105.269 23.1733 104.856 24.72 104.029 26C103.203 27.2533 101.723 28.24 99.5894 28.96C97.456 29.6533 94.496 30 90.7094 30H72.7094C72.9227 24.8267 73.0294 19.9867 73.0294 15.48C73.0294 10.9733 72.9227 6.13333 72.7094 0.96H82.1094V0.999999H90.6294C93.936 0.999999 96.536 1.28 98.4294 1.84C100.349 2.37333 101.696 3.16 102.469 4.2C103.269 5.24 103.669 6.56 103.669 8.16C103.669 9.78667 103.096 11.24 101.949 12.52C100.829 13.7733 98.896 14.7867 96.1494 15.56ZM82.1094 8.28V12H89.7894C91.4427 12 92.5894 11.8533 93.2294 11.56C93.896 11.2667 94.2294 10.7333 94.2294 9.96C94.2294 9.34666 93.8827 8.92 93.1894 8.68C92.5227 8.41333 91.3894 8.28 89.7894 8.28H82.1094ZM89.7894 22.68C91.176 22.68 92.2294 22.6267 92.9494 22.52C93.696 22.3867 94.2294 22.1733 94.5494 21.88C94.8694 21.56 95.0294 21.1333 95.0294 20.6C95.0294 19.9067 94.6427 19.4133 93.8694 19.12C93.1227 18.8 91.7627 18.64 89.7894 18.64H82.1094V22.68H89.7894ZM131.309 30C130.802 28.48 130.122 26.5733 129.269 24.28H116.509L114.509 30H104.469L115.669 0.96H130.389L141.669 30H131.309ZM126.989 18.04C125.975 15.24 124.935 12.44 123.869 9.64L122.909 7.04C121.975 9.46667 120.602 13.1333 118.789 18.04H126.989ZM176.582 0.999999C176.395 5.50666 176.302 10.3333 176.302 15.48C176.302 20.6533 176.395 25.4933 176.582 30H162.262L152.582 8.16L153.302 30H143.022C143.235 24.8267 143.342 19.9867 143.342 15.48C143.342 11 143.235 6.17333 143.022 0.999999H157.742L167.462 23.44L166.782 0.999999H176.582ZM229.795 0.96L227.155 7.08C224.835 12.4933 223.009 16.8267 221.675 20.08C220.342 23.3333 219.115 26.64 217.995 30H206.035C204.942 26.6933 203.729 23.4267 202.395 20.2C201.089 16.9467 199.329 12.7867 197.115 7.72C196.742 6.86666 195.769 4.61333 194.195 0.96H205.315C206.115 3.54667 207.302 6.86667 208.875 10.92C210.262 14.4933 211.382 17.5867 212.235 20.2C212.795 18.36 213.462 16.4 214.235 14.32C215.035 12.2133 215.515 10.9333 215.675 10.48C217.222 6.4 218.355 3.22667 219.075 0.96H229.795ZM247.345 30.4C241.239 30.4 236.745 29.08 233.865 26.44C230.985 23.7733 229.545 20.04 229.545 15.24C229.545 10.4933 230.972 6.78667 233.825 4.12C236.705 1.45333 241.212 0.119998 247.345 0.119998C253.505 0.119998 258.012 1.45333 260.865 4.12C263.745 6.78667 265.185 10.4933 265.185 15.24C265.185 20.0667 263.759 23.8 260.905 26.44C258.052 29.08 253.532 30.4 247.345 30.4ZM247.345 22.24C250.305 22.24 252.439 21.68 253.745 20.56C255.052 19.4133 255.705 17.64 255.705 15.24C255.705 12.8933 255.052 11.1467 253.745 10C252.439 8.85333 250.305 8.28 247.345 8.28C244.412 8.28 242.292 8.85333 240.985 10C239.679 11.1467 239.025 12.8933 239.025 15.24C239.025 17.6133 239.679 19.3733 240.985 20.52C242.292 21.6667 244.412 22.24 247.345 22.24ZM284.853 13.44H301.933V30H294.893L294.053 22.92C293.253 25.4533 291.827 27.3333 289.773 28.56C287.72 29.7867 285.213 30.4 282.253 30.4C279.56 30.4 277.16 29.8 275.053 28.6C272.973 27.4 271.333 25.68 270.133 23.44C268.96 21.2 268.373 18.5867 268.373 15.6C268.373 10.8267 269.8 7.05333 272.653 4.28C275.507 1.50667 279.947 0.119998 285.973 0.119998C289.413 0.119998 292.44 0.679998 295.053 1.8C297.693 2.92 299.933 4.65333 301.773 7C300.573 7.61333 298.227 8.84 294.733 10.68L293.733 11.24C292.693 10.2 291.48 9.42667 290.093 8.92C288.707 8.38667 287.24 8.12 285.693 8.12C283.133 8.12 281.227 8.8 279.973 10.16C278.72 11.4933 278.093 13.1467 278.093 15.12C278.093 17.2533 278.76 18.9733 280.093 20.28C281.453 21.5867 283.52 22.24 286.293 22.24C287.493 22.24 288.653 22.0667 289.773 21.72C290.92 21.3733 291.88 20.7733 292.653 19.92H284.853V13.44ZM328.811 0.919998H338.731V16.84C338.678 20.76 337.331 24 334.691 26.56C332.078 29.12 327.665 30.4 321.451 30.4C315.158 30.4 310.851 29.1867 308.531 26.76C306.211 24.3067 305.078 21.0933 305.131 17.12V0.919998H315.051V16.48C315.051 17.6533 315.131 18.6133 315.291 19.36C315.478 20.08 316.038 20.76 316.971 21.4C317.931 22.04 319.465 22.36 321.571 22.36C323.865 22.36 325.545 22.04 326.611 21.4C327.678 20.7333 328.305 20 328.491 19.2C328.705 18.4 328.811 17.3733 328.811 16.12V0.919998ZM351.368 22.68C361.501 22.6267 368.848 22.48 373.408 22.24C373.221 23.3333 373.101 24.4667 373.048 25.64C373.021 26.7867 373.008 28.24 373.008 30H341.928C342.141 24.8267 342.248 19.9867 342.248 15.48C342.248 10.9733 342.141 6.13333 341.928 0.96H373.008V8.2H351.368V12.04C352.648 12.0667 354.541 12.08 357.048 12.08C361.288 12.08 365.675 12 370.208 11.84V18.72C365.675 18.56 361.288 18.48 357.048 18.48C354.541 18.48 352.648 18.4933 351.368 18.52V22.68Z" fill="black"/>
</svg>
